<?xml version="1.0" encoding="UTF-8"?>
<svg version="1.1" xmlns="http://www.w3.org/2000/svg" width="256" height="256">
<path d="M0 0 C11.18601406 10.26943431 17.9480898 21.71998484 22.8984375 35.89453125 C26.20558326 45.33113181 29.94658136 54.30023284 39.171875 59.3046875 C46.69236845 62.22329056 53.07257182 61.24988324 60.3359375 58.14453125 C59.59537109 57.32662109 59.59537109 57.32662109 58.83984375 56.4921875 C55.13250686 52.12842074 52.08013933 48.37014975 51.99169922 42.46166992 C53.00154515 35.66418928 60.56338953 29.56737931 65.1484375 24.76953125 C66.37700512 23.46941399 67.60486814 22.16863055 68.83203125 20.8671875 C69.42612793 20.23828613 70.02022461 19.60938477 70.63232422 18.96142578 C74.26802735 15.08396767 77.8035826 11.1160943 81.3359375 7.14453125 C87.67988977 12.78359993 91.01973868 19.40154893 91.5859375 27.89453125 C91.55161485 32.45944382 90.12256383 35.97573649 88.3359375 40.14453125 C90.223125 39.61859375 90.223125 39.61859375 92.1484375 39.08203125 C101.05827834 37.1548243 108.32932246 38.61468084 116.33984375 42.79296875 C118.3359375 44.14453125 118.3359375 44.14453125 120.3359375 47.14453125 C97.67940365 74.03028475 97.67940365 74.03028475 83.79296875 75.296875 C80.73901848 75.10752037 78.19226986 74.20687194 75.3359375 73.14453125 C74.7275 73.82515625 74.1190625 74.50578125 73.4921875 75.20703125 C50.43934825 100.70075936 50.43934825 100.70075936 36.3359375 110.14453125 C35.75440918 110.54333496 35.17288086 110.94213867 34.57373047 111.35302734 C8.7621028 128.9411231 -22.20058827 137.38848026 -53.3515625 132.01953125 C-75.15088973 127.86198095 -95.01366992 119.40667421 -108.6015625 101.26953125 C-120.81815764 82.32319883 -123.90371569 59.07867347 -119.6640625 37.08203125 C-113.97719949 17.27145683 -100.97080396 0.82818948 -82.97802734 -9.17480469 C-55.99398375 -23.48750908 -23.2472579 -19.67365029 0 0 Z " fill="#7DC4EA" transform="translate(128.6640625,89.85546875)"/>
<path d="M0 0 C2.96922821 4.9530357 5.27590336 9.87892579 7.375 15.25 C12.68777087 28.45459844 18.02534701 39.9932019 31 47 C39.08611764 50.08491995 46.98910443 50.47804562 55.5625 50.375 C56.79613281 50.36412354 58.02976562 50.35324707 59.30078125 50.34204102 C89.74976809 49.81451869 118.73041086 38.79097132 142 19 C143.11495301 18.06919449 144.23083526 17.1395009 145.34765625 16.2109375 C146.22292969 15.48132813 147.09820312 14.75171875 148 14 C141.07782785 29.16933221 122.65900716 43.95861849 109 53 C108.42137207 53.39590332 107.84274414 53.79180664 107.24658203 54.19970703 C81.4326147 71.79369732 50.46954952 80.2449961 19.3125 74.875 C-2.48682723 70.7174497 -22.34960742 62.26214296 -35.9375 44.125 C-44.01347102 31.60023105 -48.91161455 16.95723128 -48 2 C-47.25878906 2.2165625 -46.51757812 2.433125 -45.75390625 2.65625 C-27.91636282 7.37217335 -16.43237714 -0.43243098 0 0 Z " fill="#D7D7D8" transform="translate(56,147)"/>
<path d="M0 0 C2.34216311 3.29366687 2.61536293 4.85659544 2 8.8125 C-1.06309816 11.87559816 -4.66722953 11.55963515 -8.859375 12.0546875 C-12.55323206 12.94599132 -14.96457172 14.56773717 -18 16.8125 C-18.0809313 14.20771117 -18.14045434 11.60543347 -18.1875 9 C-18.22520508 7.89301758 -18.22520508 7.89301758 -18.26367188 6.76367188 C-18.33804537 1.2848245 -18.33804537 1.2848245 -16.59375 -1.15234375 C-11.23599637 -4.63225726 -4.93495782 -3.59840674 0 0 Z " fill="#2495CD" transform="translate(100,50.1875)"/>
<path d="M0 0 C1.16015625 0.10054687 1.16015625 0.10054687 2.34375 0.203125 C5.0970757 0.90143224 5.97869953 1.32074878 7.5 3.75 C7.71714241 6.56127043 7.78284276 9.1383345 7.6875 11.9375 C7.66719727 13.06188477 7.66719727 13.06188477 7.64648438 14.20898438 C7.61118539 16.05629767 7.55737917 17.90324066 7.5 19.75 C6.63890625 19.11320312 5.7778125 18.47640625 4.890625 17.8203125 C1.42717371 15.70553234 -0.77163791 15.09480658 -4.75 14.625 C-10.30169972 13.94830028 -10.30169972 13.94830028 -12.5 11.75 C-12.9375 8.9375 -12.9375 8.9375 -12.5 5.75 C-8.71211274 1.14311009 -5.9238978 -0.59238978 0 0 Z " fill="#2495CE" transform="translate(71.5,47.25)"/>
<path d="M0 0 C3.37013879 0.67402776 4.51677007 1.7087875 6.5 4.5 C7.11793165 8.20758991 7.00197249 9.7935202 4.8125 12.875 C2.5 14.5 2.5 14.5 0 15 C-3.37013879 14.32597224 -4.51677007 13.2912125 -6.5 10.5 C-7.11793165 6.79241009 -7.00197249 5.2064798 -4.8125 2.125 C-2.5 0.5 -2.5 0.5 0 0 Z " fill="#4B5457" transform="translate(38.5,113.5)"/>
<path d="M0 0 C0.33 0 0.66 0 1 0 C1.17015625 0.9178125 1.3403125 1.835625 1.515625 2.78125 C3.78568332 14.27643895 6.02875469 22.16960236 16 29 C23.49340839 32.31439217 33.09857653 31.75587188 41 30 C42.0998312 23.0299854 42.09700334 17.74031922 39.59375 11.09375 C39 9 39 9 40 6 C43.82580286 13.56620834 45.02048949 20.53943017 44 29 C41.69440489 32.45839267 40.29410985 32.80467005 36.33984375 33.6484375 C26.94715301 35.0596932 18.84860342 33.73183408 10.8125 28.5625 C4.71910313 23.71215609 1.09201679 15.61929894 0 8 C-0.11678799 5.32321927 -0.0454506 2.68158543 0 0 Z " fill="#33919B" transform="translate(70,150)"/>
<path d="M0 0 C3.1875 0.3125 3.1875 0.3125 5.5625 1.9375 C7.68720879 5.04284361 7.79136292 6.6138396 7.1875 10.3125 C5.3125 13.1875 5.3125 13.1875 3.1875 15.3125 C2.5275 15.3125 1.8675 15.3125 1.1875 15.3125 C0.754375 14.384375 0.32125 13.45625 -0.125 12.5 C-1.54705984 9.36727886 -1.54705984 9.36727886 -3.5625 7.75 C-3.975 7.275625 -4.3875 6.80125 -4.8125 6.3125 C-4.25635027 0.47292781 -4.25635027 0.47292781 0 0 Z " fill="#2495CE" transform="translate(77.8125,32.6875)"/>
<path d="M0 0 C0.33 0 0.66 0 1 0 C1.17015625 0.9178125 1.3403125 1.835625 1.515625 2.78125 C3.403882 12.34306206 5.52854568 19.6040522 12 27 C11.01 27 10.02 27 9 27 C3.05584793 20.59146105 -0.14155173 12.05922214 -0.1875 3.375 C-0.0946875 1.704375 -0.0946875 1.704375 0 0 Z " fill="#3B97A4" transform="translate(70,150)"/>
<path d="M0 0 C0 4.38968456 -2.12805101 5.76905739 -5 9 C-5.33 8.01 -5.66 7.02 -6 6 C-4.02 4.02 -2.04 2.04 0 0 Z " fill="#AED2E2" transform="translate(203,161)"/>
<path d="M0 0 C0.99 0.33 1.98 0.66 3 1 C3 2.32 3 3.64 3 5 C1.68 5 0.36 5 -1 5 C-0.67 3.35 -0.34 1.7 0 0 Z " fill="#F6F6F6" transform="translate(40,117)"/>
</svg>
